# xmcd CD database file
#
# Track frame offsets:
#	182
#	18975
#	38775
#	55650
#	85725
#	112150
#	131550
#	148025
#	172100
#	198700
#	217575
#
# Disc length: 3250 seconds
#
# Revision: 0
# Processed by: cddbd v1.5.2PL0 Copyright (c) Steve Scherf et al.
# Submitted via: CDex 1.51
#
DISCID=990cb00b
DTITLE=Paolo Bonfanti - On My Backdoor Someday
DYEAR=1992
DGENRE=Jazz
TTITLE0=Second World
TTITLE1=After The Parade
TTITLE2=The Range
TTITLE3=Nightmares
TTITLE4=A Part We Had To Play
TTITLE5=Gentlemen's Woman
TTITLE6=Headed For Hard Times
TTITLE7=Bastard Son
TTITLE8=Stayin Awake With "L"
TTITLE9=Little Windy Town
TTITLE10=Forbidden Fruit
EXTD=YEAR: 1992
EXTT0=
EXTT1=
EXTT2=
EXTT3=
EXTT4=
EXTT5=
EXTT6=
EXTT7=
EXTT8=
EXTT9=
EXTT10=
PLAYORDER=
